<?xml version="1.0" encoding="UTF-8"?>
<svg xmlns="http://www.w3.org/2000/svg" xmlns:xlink="http://www.w3.org/1999/xlink" width="24px" height="24px" viewBox="0 0 24 24" version="1.1">
<g id="surface1">
<path style=" stroke:none;fill-rule:nonzero;fill:rgb(0%,52.54902%,100%);fill-opacity:1;" d="M 12 5 L 12 2 L 8 6 L 12 10 L 12 7 C 15.308594 7 18 9.691406 18 13 C 18 15.96875 15.828125 18.429688 13 18.910156 L 13 20.929688 C 16.949219 20.441406 20 17.078125 20 13 C 20 8.578125 16.421875 5 12 5 Z M 6 13 C 6 11.351562 6.671875 9.851562 7.761719 8.761719 L 6.339844 7.339844 C 4.898438 8.789062 4 10.789062 4 13 C 4 17.078125 7.050781 20.441406 11 20.929688 L 11 18.910156 C 8.171875 18.429688 6 15.96875 6 13 Z M 6 13 "/>
</g>
</svg>
