<?xml version="1.0" encoding="UTF-8"?>
<svg xmlns="http://www.w3.org/2000/svg" xmlns:xlink="http://www.w3.org/1999/xlink" width="12pt" height="12pt" viewBox="0 0 12 12" version="1.1">
<g id="surface1">
<path style=" stroke:none;fill-rule:nonzero;fill:rgb(100%,66.666667%,0%);fill-opacity:1;" d="M 4.015625 3.839844 L 5.652344 0.59375 C 5.71875 0.460938 5.851562 0.375 6 0.375 C 6.136719 0.375 6.273438 0.449219 6.347656 0.59375 L 7.988281 3.839844 L 11.660156 4.359375 C 11.847656 4.390625 11.992188 4.550781 12 4.738281 C 12.011719 4.863281 11.964844 4.988281 11.871094 5.074219 L 9.230469 7.589844 L 9.851562 11.136719 C 9.910156 11.46875 9.582031 11.730469 9.292969 11.582031 L 6 9.890625 L 2.707031 11.582031 C 2.671875 11.601562 2.636719 11.613281 2.597656 11.621094 C 2.34375 11.664062 2.097656 11.429688 2.148438 11.136719 L 2.769531 7.589844 L 0.128906 5.074219 C 0.046875 4.996094 0 4.886719 0 4.773438 C 0 4.691406 0.0234375 4.613281 0.0664062 4.546875 C 0.125 4.445312 0.226562 4.378906 0.34375 4.359375 Z M 6 9.019531 C 6.058594 9.019531 6.121094 9.035156 6.175781 9.0625 L 8.9375 10.484375 L 8.417969 7.515625 C 8.394531 7.375 8.4375 7.234375 8.539062 7.136719 L 10.71875 5.058594 L 7.679688 4.625 C 7.554688 4.609375 7.441406 4.527344 7.386719 4.410156 L 6 1.667969 Z M 6 9.019531 "/>
</g>
</svg>
